<?xml version="1.0" standalone="no"?>
<!DOCTYPE svg PUBLIC "-//W3C//DTD SVG 1.1//EN" "http://www.w3.org/Graphics/SVG/1.1/DTD/svg11.dtd" >
<svg xmlns="http://www.w3.org/2000/svg">
<metadata>Generated by IcoMoon</metadata>
<defs>
<font id="icomoon" horiz-adv-x="1024">
<font-face units-per-em="1024" ascent="960" descent="-64" />
<missing-glyph horiz-adv-x="1024" />
<glyph unicode="&#x20;" horiz-adv-x="512" d="" />
<glyph unicode="&#xe900;" glyph-name="call" d="M789.618 350.151h-145.636c-25.031 0-52.338 0-70.542-18.204-11.378-11.378-15.929-25.031-15.929-43.236-116.053 13.653-209.351 106.951-223.004 223.004 18.204 0 34.133 6.827 43.236 15.929 18.204 18.204 18.204 45.511 18.204 70.542v145.636c0 25.031 0 52.338-18.204 70.542-11.378 11.378-27.307 15.929-45.511 15.929h-131.982c-54.613 4.551-97.849-38.684-97.849-93.298v-129.707c0-302.649 245.76-548.409 548.409-548.409h129.707c54.613 0 97.849 43.236 97.849 97.849v129.707c0 18.204-4.551 34.133-15.929 45.511-20.48 18.204-47.787 18.204-72.818 18.204zM812.373 156.729c0-18.204-13.653-31.858-31.858-31.858h-129.707c-266.24 0-484.693 216.178-484.693 484.693v127.431c0 18.204 13.653 31.858 31.858 31.858h129.707c0-6.827 0-15.929 0-22.756v-147.911c0-6.827 0-18.204 0-22.756h-63.716v-31.858c0-177.493 145.636-323.129 323.129-323.129h31.858v63.716c6.827 0 15.929 0 22.756 0h147.911c6.827 0 18.204 0 22.756 0v-127.431z" />
<glyph unicode="&#xe901;" glyph-name="star" d="M282.169 111.218l218.453 159.289 218.453-159.289-84.196 257.138 218.453 159.289h-270.791l-81.92 254.862-84.196-254.862h-270.791l218.453-159.289-81.92-257.138zM345.884 461.653h118.329l13.653 45.511 22.756 68.267 22.756-68.267 13.653-45.511h118.329l-56.889-40.96-38.684-27.307 13.653-45.511 22.756-68.267-56.889 40.96-38.684 27.307-38.684-27.307-56.889-40.96 22.756 68.267 13.653 45.511-38.684 27.307-56.889 40.96z" />
<glyph unicode="&#xe902;" glyph-name="zoom" d="M662.187 550.4c0 143.36-116.053 257.138-257.138 257.138s-259.413-113.778-259.413-257.138c0-143.36 116.053-259.413 259.413-259.413 59.164 0 113.778 20.48 159.289 54.613l22.756-22.756-31.858-31.858 207.076-207.076 109.227 109.227-207.076 207.076-31.858-31.858-22.756 22.756c31.858 45.511 52.338 100.124 52.338 159.289zM778.24 195.413l-18.204-18.204-116.053 116.053 18.204 18.204 116.053-116.053zM402.773 356.978c-106.951 0-193.422 86.471-193.422 193.422s86.471 193.422 193.422 193.422 193.422-86.471 193.422-193.422-86.471-193.422-193.422-193.422z" />
<glyph unicode="&#xe903;" glyph-name="capture" d="M771.413 259.129c0 88.747-72.818 161.564-161.564 161.564h-193.422c-88.747 0-161.564-72.818-161.564-161.564v-63.716h516.551v63.716zM318.578 259.129c0 52.338 43.236 97.849 97.849 97.849h193.422c54.613 0 97.849-43.236 97.849-97.849h-389.12zM188.871 775.68h161.564v65.991h-225.28v-227.556h63.716zM673.564 775.68h161.564v-161.564h65.991v227.556h-227.556zM350.436 129.422h-161.564v161.564h-63.716v-225.28h225.28zM835.129 129.422h-161.564v-63.716h227.556v225.28h-65.991zM512 711.964c-70.542 0-129.707-59.164-129.707-129.707s59.164-129.707 129.707-129.707c70.542 0 129.707 56.889 129.707 129.707s-56.889 129.707-129.707 129.707zM512 518.542c-36.409 0-63.716 29.582-63.716 63.716 0 36.409 29.582 63.716 63.716 63.716 36.409 0 63.716-29.582 63.716-63.716 2.276-36.409-27.307-63.716-63.716-63.716z" />
<glyph unicode="&#xe904;" glyph-name="give" d="M773.689 325.12h-129.707c0 25.031-9.102 50.062-27.307 68.267l-113.778 113.778c-6.827 6.827-13.653 9.102-22.756 9.102h-223.004v-63.716h209.351l104.676-104.676c6.827-6.827 9.102-13.653 9.102-22.756s-2.276-15.929-9.102-22.756c-11.378-13.653-31.858-13.653-45.511 0l-47.787 47.787-45.511-45.511 47.787-47.787c18.204-18.204 43.236-27.307 68.267-27.307s50.062 9.102 68.267 27.307c2.276 0 2.276 2.276 2.276 4.551h154.738c18.204 0 31.858-13.653 31.858-31.858s-13.653-31.858-31.858-31.858h-309.476l-120.604 116.053c-6.827 6.827-13.653 9.102-22.756 9.102h-63.716v-63.716h52.338l120.604-118.329c6.827-6.827 13.653-9.102 22.756-9.102h323.129c54.613 0 97.849 43.236 97.849 97.849s-45.511 95.573-100.124 95.573zM127.431 256.853v-63.716h97.849v354.987h-97.849v-63.716h34.133v-227.556zM837.404 743.822c-43.236 43.236-116.053 43.236-159.289 2.276-43.236 40.96-118.329 38.684-159.289-2.276-45.511-45.511-45.511-118.329 0-163.84l159.289-159.289 159.289 159.289c45.511 45.511 45.511 118.329 0 163.84zM791.893 625.493l-113.778-113.778-113.778 113.778c-20.48 20.48-20.48 52.338 0 72.818 9.102 9.102 22.756 15.929 36.409 15.929s27.307-4.551 36.409-15.929l43.236-43.236 43.236 43.236c20.48 18.204 52.338 18.204 72.818 0 15.929-20.48 15.929-52.338-4.551-72.818z" />
<glyph unicode="&#xe905;" glyph-name="emoticon" d="M798.72 843.947h-582.542c-52.338 0-97.849-43.236-97.849-97.849v-418.702c0-54.613 43.236-97.849 97.849-97.849h31.858v-168.391l188.871 168.391h359.538c54.613 0 97.849 43.236 97.849 97.849v420.978c0 52.338-43.236 95.573-95.573 95.573zM830.578 327.396c0-18.204-13.653-31.858-31.858-31.858h-384.569l-100.124-88.747v88.747h-97.849c-18.204 0-31.858 13.653-31.858 31.858v420.978c0 18.204 13.653 31.858 31.858 31.858h580.267c18.204 0 31.858-13.653 31.858-31.858v-420.978zM441.458 650.524c0-17.595-14.263-31.858-31.858-31.858s-31.858 14.263-31.858 31.858c0 17.595 14.263 31.858 31.858 31.858s31.858-14.263 31.858-31.858zM634.88 650.524c0-17.595-14.263-31.858-31.858-31.858s-31.858 14.263-31.858 31.858c0 17.595 14.263 31.858 31.858 31.858s31.858-14.263 31.858-31.858zM311.751 511.716c29.582-91.022 106.951-152.462 193.422-152.462s166.116 61.44 193.422 152.462l13.653 40.96h-414.151l13.653-40.96zM618.951 488.96c-25.031-40.96-68.267-63.716-111.502-63.716-45.511 0-86.471 25.031-111.502 63.716h223.004z" />
<glyph unicode="&#xe906;" glyph-name="menu" d="M254.862 689.209h516.551v-63.716h-516.551v63.716zM254.862 495.787h516.551v-63.716h-516.551v63.716zM254.862 300.089h516.551v-63.716h-516.551v63.716z" />
<glyph unicode="&#xe907;" glyph-name="dots" d="M564.338 461.653c0-35.189-28.526-63.716-63.716-63.716s-63.716 28.526-63.716 63.716c0 35.189 28.526 63.716 63.716 63.716s63.716-28.526 63.716-63.716zM336.782 461.653c0-35.189-28.526-63.716-63.716-63.716s-63.716 28.526-63.716 63.716c0 35.189 28.526 63.716 63.716 63.716s63.716-28.526 63.716-63.716zM789.618 461.653c0-35.189-28.526-63.716-63.716-63.716s-63.716 28.526-63.716 63.716c0 35.189 28.526 63.716 63.716 63.716s63.716-28.526 63.716-63.716z" />
<glyph unicode="&#xe908;" glyph-name="add" d="M477.867 108.942h63.716v318.578h318.578v65.991h-318.578v323.129h-63.716v-323.129h-323.129v-65.991h323.129z" />
<glyph unicode="&#xe909;" glyph-name="paper-plan" d="M327.68 118.044l59.164-20.48 104.676 138.809 207.076-147.911 50.062 20.48 129.707 646.258-43.236 36.409-680.391-257.138-6.827-56.889 179.769-120.604v-238.933zM391.396 213.618v145.636l273.067 218.453-273.067-364.089zM694.044 172.658l-166.116 116.053 257.138 343.609-91.022-459.662zM236.658 498.062l425.529 161.564-304.924-243.484-120.604 81.92z" />
<glyph unicode="&#xe90a;" glyph-name="download" d="M887.467 341.049h-291.271v-63.716h-193.422v63.716h-291.271v-259.413h775.964v259.413zM823.751 147.627h-646.258v129.707h161.564v-63.716h323.129v63.716h161.564v-129.707zM466.489 793.884v-311.751l-116.053 116.053-45.511-45.511 195.698-195.698 197.973 195.698-45.511 45.511-120.604-120.604v316.302z" />
<glyph unicode="&#xe90b;" glyph-name="browser" d="M507.449 839.396c-213.902 0-386.844-172.942-386.844-386.844s172.942-386.844 386.844-386.844c213.902 0 386.844 172.942 386.844 386.844s-172.942 386.844-386.844 386.844zM787.342 614.116h-61.44c-11.378 40.96-27.307 79.644-47.787 111.502 45.511-27.307 81.92-65.991 109.227-111.502zM682.667 452.551c0-34.133-2.276-65.991-9.102-97.849h-134.258v193.422h134.258c4.551-29.582 9.102-61.44 9.102-95.573zM332.231 452.551c0 34.133 2.276 65.991 9.102 97.849h134.258v-193.422h-134.258c-6.827 29.582-9.102 61.44-9.102 95.573zM475.591 768.853v-154.738h-118.329c25.031 77.369 68.267 136.533 118.329 154.738zM475.591 290.987v-154.738c-50.062 18.204-93.298 77.369-118.329 154.738h118.329zM539.307 136.249v154.738h118.329c-25.031-79.644-68.267-138.809-118.329-154.738zM539.307 614.116v154.738c50.062-18.204 93.298-77.369 118.329-154.738h-118.329zM336.782 725.618c-20.48-31.858-36.409-70.542-47.787-111.502h-61.44c27.307 45.511 63.716 84.196 109.227 111.502zM200.249 548.124h75.093c-4.551-31.858-6.827-63.716-6.827-97.849s2.276-65.991 6.827-97.849h-75.093c-11.378 34.133-15.929 65.991-15.929 100.124s4.551 65.991 15.929 95.573zM227.556 290.987h61.44c11.378-40.96 27.307-79.644 47.787-111.502-45.511 27.307-81.92 65.991-109.227 111.502zM678.116 179.484c20.48 31.858 36.409 70.542 47.787 111.502h61.44c-27.307-45.511-63.716-84.196-109.227-111.502zM814.649 354.702h-75.093c4.551 31.858 6.827 63.716 6.827 97.849s-2.276 65.991-6.827 97.849h75.093c9.102-31.858 15.929-63.716 15.929-97.849s-6.827-65.991-15.929-97.849z" />
<glyph unicode="&#xe90c;" glyph-name="calendar" d="M286.72 814.364v-193.422h63.716v63.716h323.129v65.991h-323.129v63.716zM286.72 427.52h63.716v-63.716h-63.716v63.716zM416.427 427.52h63.716v-63.716h-63.716v63.716zM543.858 427.52h63.716v-63.716h-63.716v63.716zM673.564 427.52h63.716v-63.716h-63.716v63.716zM286.72 297.813h63.716v-63.716h-63.716v63.716zM416.427 297.813h63.716v-63.716h-63.716v63.716zM543.858 297.813h63.716v-63.716h-63.716v63.716zM673.564 297.813h63.716v-63.716h-63.716v63.716zM866.987 523.093v227.556h-97.849v63.716h-63.716v-193.422h63.716v63.716h31.858v-97.849h-577.991v97.849h31.858v65.991h-97.849v-678.116h709.973v450.56zM803.271 136.249h-580.267v386.844h580.267v-386.844z" />
<glyph unicode="&#xe90d;" glyph-name="note" d="M719.076 698.311l-63.716 63.716-184.32-184.32 45.511-45.511 138.809 138.809 18.204-18.204-341.333-341.333v-109.227h109.227l452.836 452.836-109.227 109.227-65.991-65.991zM719.076 607.289l18.204-18.204-118.329-118.329-18.204 18.204 118.329 118.329zM414.151 265.956h-18.204v18.204l159.289 159.289 18.204-18.204-159.289-159.289zM782.791 634.596l-18.204 18.204 18.204 18.204 18.204-18.204-18.204-18.204zM655.36 297.813h-63.716v-161.564h-420.978v484.693h161.564v161.564h323.129v63.716h-400.498l-147.911-147.911v-625.778h548.409v225.28zM266.24 768.853v-84.196h-81.92l81.92 84.196zM202.524 265.956h97.849v-63.716h-97.849v63.716z" />
<glyph unicode="&#xe90e;" glyph-name="info" d="M393.671 95.289h288.996v63.716h-63.716v357.262h-288.996v-63.716h63.716v-357.262zM459.662 450.276h97.849v-291.271h-97.849v291.271zM507.449 548.124c61.44 0 113.778 50.062 113.778 113.778s-50.062 113.778-113.778 113.778-113.778-50.062-113.778-113.778 52.338-113.778 113.778-113.778zM507.449 709.689c27.307 0 47.787-22.756 47.787-47.787s-20.48-47.787-47.787-47.787c-27.307 0-47.787 20.48-47.787 47.787s20.48 47.787 47.787 47.787z" />
<glyph unicode="&#xe90f;" glyph-name="conversation" d="M780.516 691.484v31.858c0 52.338-43.236 97.849-97.849 97.849h-482.418c-54.613 0-97.849-43.236-97.849-97.849v-323.129c0-54.613 43.236-97.849 97.849-97.849h31.858v-175.218l175.218 175.218h18.204v63.716h-45.511l-84.196-84.196v84.196h-95.573c-18.204 0-31.858 13.653-31.858 31.858v325.404c0 18.204 13.653 31.858 31.858 31.858h484.693c18.204 0 31.858-13.653 31.858-31.858v-31.858h63.716zM780.516 659.627h-225.28c-52.338 0-97.849-43.236-97.849-97.849v-259.413c0-54.613 43.236-97.849 97.849-97.849h84.196l143.36-143.36v143.36c54.613 0 97.849 43.236 97.849 97.849v261.689c-2.276 52.338-47.787 95.573-100.124 95.573zM812.373 304.64c0-18.204-13.653-31.858-31.858-31.858h-63.716v-52.338l-50.062 50.062h-109.227c-18.204 0-31.858 13.653-31.858 31.858v261.689c0 18.204 13.653 31.858 31.858 31.858h225.28c18.204 0 31.858-13.653 31.858-31.858v-259.413z" />
<glyph unicode="&#xe910;" glyph-name="bubble-chat" d="M789.618 843.947h-580.267c-54.613 0-97.849-43.236-97.849-97.849v-418.702c0-54.613 43.236-97.849 97.849-97.849h31.858v-168.391l188.871 168.391h359.538c54.613 0 97.849 43.236 97.849 97.849v418.702c0 54.613-43.236 97.849-97.849 97.849zM823.751 327.396c0-18.204-13.653-31.858-31.858-31.858h-384.569l-100.124-88.747v88.747h-97.849c-18.204 0-31.858 13.653-31.858 31.858v418.702c0 18.204 13.653 31.858 31.858 31.858h580.267c18.204 0 31.858-13.653 31.858-31.858v-418.702z" />
<glyph unicode="&#xe911;" glyph-name="edit" d="M184.32 177.209h175.218l468.764 468.764-175.218 175.218-468.764-468.764v-175.218zM248.036 243.2v84.196l84.196-84.196h-84.196zM293.547 370.631l277.618 277.618 84.196-84.196-277.618-275.342-84.196 81.92zM735.004 645.973l-34.133-34.133-84.196 84.196 34.133 34.133 84.196-84.196zM184.32 113.493h646.258v-63.716h-646.258v63.716z" />
<glyph unicode="&#xe912;" glyph-name="warning" d="M600.747 757.476h-177.493l-161.564-548.409h-72.818v-63.716h648.533v63.716h-72.818l-163.84 548.409zM639.431 402.489h-252.587l29.582 97.849h195.698l27.307-97.849zM552.96 691.484l29.582-97.849h-138.809l29.582 97.849h79.644zM329.956 209.067l29.582 97.849h309.476l29.582-97.849h-368.64z" />
<glyph unicode="&#xe913;" glyph-name="materialdesignicons-20" d="M887.467 734.72c0 52.338-43.236 97.849-97.849 97.849s-97.849-43.236-97.849-97.849c0-43.236 27.307-77.369 63.716-91.022v-6.827h-516.551v6.827c38.684 13.653 63.716 47.787 63.716 91.022 0 52.338-43.236 97.849-97.849 97.849s-93.298-45.511-93.298-97.849c0-43.236 27.307-77.369 63.716-91.022v-6.827h-63.716v-291.271h63.716v-291.271h63.716v293.547h516.551v-291.271h63.716v291.271h63.716v288.996h-63.716v6.827c40.96 13.653 68.267 47.787 68.267 91.022zM789.618 766.578c18.204 0 31.858-13.653 31.858-31.858s-13.653-31.858-31.858-31.858-31.858 13.653-31.858 31.858 13.653 31.858 31.858 31.858zM609.849 573.156h134.258l-161.564-161.564h-134.258l161.564 161.564zM357.262 411.591h-134.258l161.564 161.564h134.258l-161.564-161.564zM209.351 766.578c18.204 0 31.858-13.653 31.858-31.858s-13.653-31.858-31.858-31.858c-18.204 0-31.858 13.653-31.858 31.858s13.653 31.858 31.858 31.858zM293.547 573.156l-116.053-116.053v116.053h116.053zM673.564 411.591l147.911 147.911v-147.911h-147.911z" />
<glyph unicode="&#xe914;" glyph-name="trash" d="M700.871 174.933c0-18.204-13.653-31.858-31.858-31.858h-323.129c-18.204 0-31.858 13.653-31.858 31.858v452.836h-63.716v-452.836c0-54.613 43.236-97.849 97.849-97.849h323.129c54.613 0 97.849 43.236 97.849 97.849v452.836h-68.267v-452.836zM669.013 757.476c0 36.409-29.582 63.716-63.716 63.716h-193.422c-36.409 0-63.716-29.582-63.716-63.716v-31.858h-163.84v-63.716h646.258v63.716h-161.564v31.858zM409.6 757.476h193.422v-31.858h-193.422v31.858zM475.591 595.911h63.716v-386.844h-63.716v386.844zM377.742 595.911h63.716v-386.844h-63.716v386.844zM571.164 595.911h63.716v-386.844h-63.716v386.844z" />
<glyph unicode="&#xe915;" glyph-name="minus" d="M136.533 473.031h705.422v-63.716h-705.422v63.716z" />
<glyph unicode="&#xe916;" glyph-name="close" d="M279.893 181.76l220.729 220.729 218.453-220.729 45.511 45.511-218.453 220.729 218.453 218.453-45.511 45.511-218.453-218.453-220.729 218.453-45.511-45.511 220.729-218.453-220.729-220.729z" />
<glyph unicode="&#xe917;" glyph-name="check" d="M853.333 675.556l-45.511 45.511-459.662-457.387-136.533 166.116-50.062-38.684 182.044-225.28z" />
<glyph unicode="&#xe918;" glyph-name="arrow-left" d="M407.324 268.231l-138.809 138.809h566.613v65.991h-566.613l138.809 138.809-47.787 45.511-213.902-216.178 213.902-218.453z" />
<glyph unicode="&#xe919;" glyph-name="arrow-right" d="M600.747 611.84l138.809-138.809h-600.747v-65.991h598.471l-136.533-136.533 45.511-45.511 216.178 216.178-216.178 216.178z" />
<glyph unicode="&#xe91a;" glyph-name="preview" d="M643.982 272.782l-182.044 182.044 182.044 182.044-45.511 45.511-227.556-227.556 227.556-227.556z" />
<glyph unicode="&#xe91b;" glyph-name="down" d="M512 318.293l241.209 238.933h-477.867l236.658-238.933zM596.196 491.236l-84.196-84.196-84.196 84.196h168.391z" />
<glyph unicode="&#xe91c;" glyph-name="up" d="M259.413 318.293h482.418l-241.209 238.933-241.209-238.933zM500.622 382.009h-84.196l84.196 84.196 84.196-84.196h-84.196z" />
<glyph unicode="&#xe91d;" glyph-name="forward" d="M416.427 209.067l227.556 227.556-227.556 229.831-45.511-47.787 182.044-182.044-182.044-182.044z" />
</font>
</defs>
</svg>
